<?xml version="1.0" encoding="UTF-8"?>
<svg id="Livello_2" data-name="Livello 2" xmlns="http://www.w3.org/2000/svg" viewBox="0 0 775.61 189.13">
  <defs>
    <style>
      .cls-1 {
        fill: #001533;
      }

      .cls-1, .cls-2, .cls-3 {
        stroke-width: 0px;
      }

      .cls-2 {
        fill: #00e165;
      }

      .cls-3 {
        fill: #fff;
      }
    </style>
  </defs>
  <g id="Livello_1-2" data-name="Livello 1">
    <path class="cls-3" d="M77.86,85.43c11.29,6.51,16.93,16.32,16.93,29.45,0,10.93-3.86,19.88-11.59,26.87-7.73,7-17.24,10.49-28.53,10.49H0V23.4h50.8c11.05,0,20.34,3.4,27.89,10.22,7.54,6.81,11.32,15.49,11.32,26.04s-4.05,19.27-12.15,25.77ZM50.8,47.14h-25.4v28.35h25.4c3.93,0,7.21-1.35,9.85-4.05,2.64-2.7,3.96-6.07,3.96-10.13s-1.29-7.42-3.86-10.12c-2.58-2.7-5.89-4.05-9.95-4.05ZM54.67,128.5c4.29,0,7.85-1.45,10.67-4.33,2.82-2.88,4.23-6.53,4.23-10.95s-1.41-7.89-4.23-10.77c-2.82-2.88-6.38-4.32-10.67-4.32h-29.27v30.37h29.27Z"/>
    <path class="cls-3" d="M330.39,152.24V17.88h23.74v134.36h-23.74Z"/>
    <path class="cls-3" d="M387.63,49.16c-3.93,0-7.33-1.44-10.22-4.32s-4.33-6.29-4.33-10.22,1.45-7.36,4.33-10.31c2.88-2.95,6.28-4.42,10.22-4.42s7.51,1.47,10.4,4.42c2.88,2.94,4.33,6.38,4.33,10.31s-1.45,7.33-4.33,10.22c-2.88,2.88-6.34,4.32-10.4,4.32ZM375.85,152.24V60.21h23.74v92.03h-23.74Z"/>
    <path class="cls-3" d="M481.86,60.21h26.14l-34.97,92.03h-27.06l-34.97-92.03h26.14l22.3,64.41,22.42-64.41Z"/>
    <path class="cls-3" d="M535.8,115.98c3.19,11.53,11.84,17.3,25.95,17.3,9.08,0,15.95-3.07,20.61-9.2l19.14,11.04c-9.08,13.14-22.45,19.7-40.12,19.7-15.22,0-27.43-4.6-36.63-13.8-9.2-9.2-13.8-20.8-13.8-34.79s4.54-25.43,13.62-34.7c9.08-9.26,20.73-13.89,34.97-13.89,13.5,0,24.63,4.67,33.41,13.99,8.77,9.32,13.16,20.86,13.16,34.6,0,3.07-.31,6.32-.92,9.76h-69.39ZM535.43,97.57h46.93c-1.35-6.26-4.13-10.92-8.37-13.99-4.23-3.06-9.05-4.6-14.45-4.6-6.38,0-11.66,1.63-15.82,4.88-4.18,3.25-6.94,7.82-8.28,13.71Z"/>
    <path class="cls-3" d="M646.41,76.04c2.21-5.89,5.86-10.31,10.96-13.26,5.09-2.94,10.76-4.42,17.02-4.42v26.5c-7.24-.85-13.71.61-19.42,4.42-5.71,3.8-8.56,10.13-8.56,18.96v43.99h-23.74V60.21h23.74v15.83Z"/>
    <path class="cls-3" d="M750.22,60.21h25.4l-33.55,92.18c-4.79,13.14-11.13,22.69-19.03,28.65-7.91,5.95-17.74,8.63-29.51,8.01v-22.09c6.38.12,11.44-1.23,15.19-4.05,3.74-2.82,6.72-7.36,8.93-13.62l-37.73-89.09h25.95l24,61.85,20.36-61.85Z"/>
    <g>
      <path class="cls-3" d="M111.48,107.04c3.49-14.95,10.65-27.07,24.34-32.96,4.69-2.02,9.99-3.09,15.04-3.22,15.75-.4,31.51-.15,47.27-.14.71,0,1.41.12,2.48.21-.49,1.08-.86,1.91-1.24,2.73-3.2,6.81-5.57,13.9-6.03,21.61-.72,11.85,4.98,19.75,15.93,20.55,5.2.38,10.44.51,15.67.46,14.78-.16,28.2-12.54,29.03-27.3,0-.09.01-.19.02-.28.8-15.43.89-30.92-3.5-45.83-1.8-6.11-5-11.72-7.51-17.59-.36-.84-.83-2.09-.52-2.74,2.39-5.02,2.48-7.72-.38-11.21-1.37-1.67-1.62-4.07-.41-5.85,2.47-3.63,7.24-5.76,12.34-5.44,2.58.16,4.57,2.35,4.58,4.93,0,1.65,0,3.32,0,4.99-.02,3.61-2.98,6.6-6.59,6.66-.97.01-1.94.04-2.91.11-.84.06-1.63.79-2.44,1.22.46.84.73,2.14,1.4,2.46,12.29,5.83,19.95,16.71,26.32,28.84,5.51,10.48,9.91,21.49,10.9,33.75.17,2.1,1.41,2.2,2.86,2.22,6.19.09,12.06,1.51,17.23,5.36,5.56,4.13,8.96,9.59,10.56,16.31.72,3.03-1.75,5.9-4.86,5.9-5.56,0-11-.01-16.44,0-7.97.03-15.94.03-23.9.18-6.4.12-11.62,2.52-14.73,9.14-.39.84-2.04,1.36-3.11,1.37-14.31.08-28.62.05-42.92.02-27.65-.05-58.63-.28-87.24-.39-7.44-.03-12.99-6.81-11.58-14.11l.38-1.95Z"/>
      <path class="cls-1" d="M175.71,66.99c-8.5,0-17.01.05-25.51-.05-1.38-.02-3.53,1.08-3.76-1.87-.23-2.88,1.58-5.49,3.97-5.76.45-.05.9-.02,1.36-.02,16.19,0,32.39-.05,48.58.1,1.47.01,3.36.96,4.28,2.17.81,1.06.74,3.13.57,4.69-.04.37-2.05.67-3.15.68-8.78.05-17.55.03-26.33.03,0,.01,0,.02,0,.03Z"/>
      <path class="cls-1" d="M240.78,17.07c-.03,2.76-1.99,4.84-4.51,4.78-2.47-.06-4.4-2.31-4.3-5.03.09-2.6,2.04-4.65,4.4-4.64,2.53.02,4.44,2.14,4.41,4.89Z"/>
      <path class="cls-1" d="M158.65,90.66c-3.13,0-6.26.02-9.39-.02-.51,0-1.3.4-1.38-.69-.08-1.06.58-2.02,1.46-2.12.16-.02.33,0,.5,0,5.96,0,11.93-.02,17.89.03.54,0,1.24.35,1.58.8.3.39.27,1.15.21,1.73-.02.14-.75.25-1.16.25-3.23.02-6.46.01-9.69.01,0,0,0,0,0,.01Z"/>
      <path class="cls-1" d="M153.44,97.35c-3.13,0-6.26.02-9.39-.02-.51,0-1.3.4-1.38-.69-.08-1.06.58-2.02,1.46-2.12.16-.02.33,0,.5,0,5.96,0,11.93-.02,17.89.03.54,0,1.24.35,1.58.8.3.39.27,1.15.21,1.73-.02.14-.75.25-1.16.25-3.23.02-6.46.01-9.69.01,0,0,0,0,0,.01Z"/>
      <path class="cls-1" d="M148.81,104.13c-3.13,0-6.26.02-9.39-.02-.51,0-1.3.4-1.38-.69-.08-1.06.58-2.02,1.46-2.12.16-.02.33,0,.5,0,5.96,0,11.93-.02,17.89.03.54,0,1.24.35,1.58.8.3.39.27,1.15.21,1.73-.02.14-.75.25-1.16.25-3.23.02-6.46.01-9.69.01,0,0,0,0,0,.01Z"/>
    </g>
    <rect class="cls-3" x="118.15" width="72.37" height="56.25" rx=".55" ry=".55"/>
    <path class="cls-1" d="M150.05,44.03c-.02-.46.16-.82.46-1.12,3.54-3.54,7.08-7.08,10.62-10.62,1.02-1.02,2.04-2.03,3.06-3.06.71-.72.68-1.65-.03-2.36-1.55-1.53-3.08-3.07-4.62-4.61-1.53-1.53-3.06-3.06-4.59-4.59-1.47-1.46-2.94-2.93-4.39-4.4-.56-.57-.56-1.55,0-2.12.89-.91,1.8-1.81,2.71-2.7.64-.62,1.55-.61,2.2.02,1.03,1.01,2.04,2.03,3.06,3.05,3.88,3.88,7.76,7.76,11.64,11.64,1.24,1.24,2.47,2.47,3.7,3.71.72.73.75,1.6.04,2.33-1.15,1.18-2.32,2.33-3.48,3.49-1.41,1.41-2.82,2.81-4.22,4.22-1.41,1.41-2.81,2.81-4.22,4.22-1.4,1.4-2.8,2.8-4.2,4.2-.82.82-1.64,1.65-2.47,2.46-.58.56-1.5.58-2.09.02-.94-.9-1.86-1.83-2.78-2.77-.28-.28-.43-.65-.39-1.04Z"/>
    <path class="cls-1" d="M159.27,132.76c-3.07,3.07-6.89,4.6-11.45,4.6s-8.36-1.53-11.4-4.6c-1.13-1.15-1.99-2.46-2.7-3.84l-16.15-.03c1.3,5.41,3.98,10.19,8.11,14.32,6.02,6.02,13.4,9.03,22.14,9.03s16.14-3.01,22.2-9.03c4.13-4.1,6.81-8.84,8.13-14.2l-16.17-.03c-.71,1.36-1.57,2.65-2.7,3.78Z"/>
    <path class="cls-1" d="M292.76,118.38c.12.87.23,1.75.23,2.69,0,4.72-1.53,8.62-4.6,11.69s-6.89,4.6-11.45,4.6-8.36-1.53-11.4-4.6c-2.26-2.29-3.67-5.04-4.25-8.25-2.24,3.11-6.21,4.53-9.49,4.55-1.69,0-3.37,0-5.06.01,1.31,5.33,3.98,10.06,8.06,14.14,6.02,6.02,13.4,9.03,22.14,9.03s16.14-3.01,22.19-9.03c6.06-6.02,9.09-13.4,9.09-22.14,0-.92-.05-1.81-.12-2.7h-15.34Z"/>
    <path class="cls-2" d="M150.29,35.22c-1.97-1.98-3.94-3.95-5.91-5.93-.57-.58-.64-1.4-.18-2.04.13-.18.3-.34.46-.49,2.48-2.48,4.96-4.96,7.44-7.44.02-.02.04-.05.06-.08l-4.83-4.83s-.06.03-.08.06c-1.6,1.59-3.19,3.19-4.79,4.79-2.55,2.55-5.09,5.11-7.66,7.64-.79.78-.71,1.84,0,2.53,3.42,3.38,6.8,6.79,10.2,10.18.72.72,1.44,1.44,2.16,2.16l4.84-4.84c-.57-.58-1.14-1.15-1.71-1.72Z"/>
  </g>
</svg>